<svg xmlns="http://www.w3.org/2000/svg" width="24" height="24" viewBox="0 0 134 22" fill="none">
    <path fill-rule="evenodd" clip-rule="evenodd" d="M118.837 0H127.087C130.883 0 133.962 3.07862 133.962 6.875V15.125C133.962 18.9214 130.883 22 127.087 22H118.837C115.04 22 111.962 18.9214 111.962 15.125V6.875C111.962 3.07862 115.04 0 118.837 0ZM127.087 19.9375C129.74 19.9375 131.899 17.7787 131.899 15.125V6.875C131.899 4.22125 129.74 2.0625 127.087 2.0625H118.837C116.183 2.0625 114.024 4.22125 114.024 6.875V15.125C114.024 17.7787 116.183 19.9375 118.837 19.9375H127.087Z" fill="white"/>
    <path fill-rule="evenodd" clip-rule="evenodd" d="M117.462 11C117.462 7.96263 119.924 5.5 122.962 5.5C125.999 5.5 128.462 7.96263 128.462 11C128.462 14.0374 125.999 16.5 122.962 16.5C119.924 16.5 117.462 14.0374 117.462 11ZM119.524 11C119.524 12.8948 121.067 14.4375 122.962 14.4375C124.856 14.4375 126.399 12.8948 126.399 11C126.399 9.10388 124.856 7.5625 122.962 7.5625C121.067 7.5625 119.524 9.10388 119.524 11Z" fill="white"/>
    <circle cx="128.874" cy="5.08737" r="0.732875" fill="white"/>
</svg>