<svg xmlns="http://www.w3.org/2000/svg" width="24" height="24" viewBox="0 0 134 22" fill="none">
    <path fill="white" d="M71.9617 4.11613C71.1435 4.475 70.2718 4.71288 69.3629 4.82838C70.2979 4.27013 71.0115 3.39287 71.347 2.3355C70.4753 2.85525 69.5128 3.22238 68.487 3.42725C67.6593 2.54588 66.4795 2 65.1925 2C62.6955 2 60.6853 4.02675 60.6853 6.51137C60.6853 6.86888 60.7155 7.21263 60.7898 7.53988C57.0402 7.357 53.7223 5.55988 51.4934 2.82225C51.1043 3.49738 50.876 4.27012 50.876 5.102C50.876 6.664 51.6804 8.04862 52.8794 8.85025C52.1548 8.8365 51.4439 8.62613 50.8417 8.29475C50.8417 8.3085 50.8417 8.32638 50.8417 8.34425C50.8417 10.536 52.405 12.3565 54.4552 12.7759C54.088 12.8763 53.6879 12.9244 53.2727 12.9244C52.9839 12.9244 52.6924 12.9079 52.4188 12.8474C53.0032 14.6335 54.6614 15.9466 56.6332 15.9893C55.0987 17.1896 53.1503 17.9129 51.041 17.9129C50.6712 17.9129 50.3164 17.8964 49.9617 17.851C51.9595 19.1394 54.3273 19.875 56.8807 19.875C65.1802 19.875 69.7177 13 69.7177 7.04075C69.7177 6.84137 69.7108 6.64887 69.7012 6.45775C70.5963 5.8225 71.3484 5.02913 71.9617 4.11613Z"/>
</svg>