<svg xmlns="http://www.w3.org/2000/svg" width="21" height="21" viewBox="0 0 21 21">
    <path d="M18.375 4.37497L2.62499 4.37497C2.46553 4.37547 2.30922 4.41945 2.17289 4.50217C2.03657 4.5849 1.92539 4.70324 1.85132 4.84445C1.77724 4.98566 1.74309 5.14441 1.75252 5.30359C1.76196 5.46277 1.81463 5.61637 1.90486 5.74784L9.77986 17.1228C10.1062 17.5945 10.892 17.5945 11.2192 17.1228L19.0942 5.74784C19.1854 5.61664 19.2388 5.46297 19.2488 5.30352C19.2587 5.14408 19.2248 4.98495 19.1507 4.84344C19.0765 4.70192 18.965 4.58344 18.8283 4.50084C18.6915 4.41825 18.5347 4.37472 18.375 4.37497Z" />
</svg>